<svg width="262" height="262" viewBox="0 0 262 262" fill="none" xmlns="http://www.w3.org/2000/svg">
<circle cx="131" cy="131" r="131" fill="#1E1E1E"/>
<path d="M111.463 179.245H102.187C102.017 179.245 101.932 179.075 101.932 178.904L122.271 109.634C123.632 105.038 128.653 101.294 133.419 101.294H142.695C142.865 101.294 142.95 101.464 142.95 101.634L122.611 170.905C121.165 175.926 116.569 179.33 111.463 179.245Z" fill="white"/>
<path d="M152.651 132.951H143.035L163.544 63.3397C164.906 58.7444 169.926 55 174.692 55H184.308L163.884 124.611C162.353 129.547 157.842 132.951 152.651 132.951Z" fill="white"/>
<path d="M134.78 157.374L137.504 147.928C138.865 143.333 143.886 139.589 148.652 139.589L205.243 139.674L202.264 149.29C200.902 153.8 195.882 157.459 191.116 157.459L134.78 157.374Z" fill="white"/>
<path d="M54.9575 179.415L57.6806 169.969C59.0422 165.374 64.0631 161.629 68.8286 161.629L99.1239 161.714L96.1454 171.331C94.7839 175.841 89.763 179.5 84.9975 179.5L54.9575 179.415Z" fill="white"/>
</svg>
